<?xml version="1.0" encoding="utf-8"?>
<!-- Generator: Adobe Illustrator 24.2.0, SVG Export Plug-In . SVG Version: 6.00 Build 0)  -->
<svg version="1.1" id="Layer_1" xmlns="http://www.w3.org/2000/svg" xmlns:xlink="http://www.w3.org/1999/xlink" x="0px" y="0px"
	 viewBox="0 0 196.8 33" style="enable-background:new 0 0 196.8 33;" xml:space="preserve">
<style type="text/css">
	.st0{fill:#FFFFFF;}
</style>
<g>
	<g>
		<g>
			<path class="st0" d="M76.2,15.6V5.1h7.7v1.4h-6.2v3.2h4.1V11h-4.1v4.6H76.2z"/>
			<path class="st0" d="M94.8,15.8c-0.9,0-1.7-0.2-2.4-0.6c-0.7-0.4-1.2-0.9-1.5-1.6c-0.4-0.7-0.5-1.5-0.5-2.5v-6H92v6
				c0,0.6,0.1,1.2,0.4,1.7c0.2,0.5,0.6,0.8,1,1.1s0.9,0.4,1.5,0.4s1.1-0.1,1.5-0.4c0.4-0.3,0.8-0.6,1-1.1s0.4-1,0.4-1.7v-6h1.6v6
				c0,0.9-0.2,1.8-0.5,2.5c-0.4,0.7-0.9,1.2-1.5,1.6C96.5,15.6,95.7,15.8,94.8,15.8z"/>
			<path class="st0" d="M106.2,15.6V5.1h1.6v9.1h6v1.4H106.2z"/>
			<path class="st0" d="M120.4,15.6V5.1h1.6v9.1h6v1.4H120.4z"/>
			<path class="st0" d="M147.8,15.8c-0.8,0-1.5-0.1-2.2-0.4c-0.7-0.3-1.2-0.7-1.8-1.2c-0.5-0.5-0.9-1.1-1.2-1.7
				c-0.3-0.7-0.4-1.4-0.4-2.1c0-0.8,0.1-1.5,0.4-2.1c0.3-0.7,0.7-1.2,1.2-1.7s1.1-0.9,1.8-1.1c0.7-0.3,1.4-0.4,2.2-0.4
				c0.5,0,1.1,0.1,1.6,0.2s1,0.4,1.5,0.6c0.4,0.3,0.8,0.6,1.2,1l-1.1,1c-0.4-0.5-0.9-0.8-1.4-1.1c-0.6-0.2-1.1-0.4-1.8-0.4
				c-0.6,0-1.1,0.1-1.5,0.3c-0.5,0.2-0.9,0.5-1.2,0.8c-0.4,0.4-0.6,0.8-0.8,1.3s-0.3,1-0.3,1.6s0.1,1.1,0.3,1.6s0.5,0.9,0.8,1.3
				c0.4,0.4,0.8,0.6,1.3,0.8s1,0.3,1.6,0.3s1.2-0.1,1.7-0.4s1-0.6,1.4-1l1,1c-0.3,0.4-0.7,0.7-1.2,1c-0.4,0.3-0.9,0.5-1.4,0.6
				C148.9,15.7,148.4,15.8,147.8,15.8z"/>
			<path class="st0" d="M157.5,15.6l4.3-10.5h1.8l4.3,10.5h-1.7l-1.2-3.1h-4.7l-1.2,3.1H157.5z M160.9,11.2h3.7l-1.8-4.6L160.9,11.2
				z"/>
			<path class="st0" d="M174.1,15.6V5.1h4.7c0.7,0,1.3,0.1,1.8,0.4s0.9,0.6,1.2,1.1s0.4,1,0.4,1.6c0,0.7-0.2,1.3-0.6,1.8
				c-0.4,0.5-0.9,0.9-1.6,1.1l2.3,4.5h-1.8l-2.2-4.3h-2.9v4.3H174.1z M175.7,10h3c0.6,0,1.1-0.2,1.5-0.5s0.6-0.7,0.6-1.3
				c0-0.5-0.2-1-0.6-1.3c-0.4-0.3-0.9-0.5-1.5-0.5h-3V10z"/>
			<path class="st0" d="M189,15.6V5.1h7.7v1.4h-6.2v3.1h4V11h-4v3.3h6.2v1.4L189,15.6L189,15.6z"/>
		</g>
		<g>
			<g>
				<rect x="76.2" y="20.8" class="st0" width="120.6" height="0.3"/>
			</g>
			<g>
				<rect x="76.2" y="27.8" class="st0" width="120.6" height="0.3"/>
			</g>
		</g>
		<g>
			<path class="st0" d="M79.8,22.4v4h-0.6v-1.8h-2.3v1.8h-0.6v-4h0.6v1.7h2.3v-1.7H79.8z"/>
			<path class="st0" d="M86.8,25.9v0.5h-2.9v-4h2.8v0.5h-2.2v1.2h2v0.5h-2v1.3H86.8z"/>
			<path class="st0" d="M93.2,25.4h-2.1l-0.4,1h-0.6l1.8-4h0.6l1.8,4h-0.6L93.2,25.4z M93,25l-0.8-2l-0.9,2H93z"/>
			<path class="st0" d="M97.8,22.4h0.6v3.5h2.1v0.5h-2.7V22.4z"/>
			<path class="st0" d="M104.6,22.9h-1.4v-0.5h3.3v0.5h-1.4v3.5h-0.6L104.6,22.9L104.6,22.9z"/>
			<path class="st0" d="M113.5,22.4v4h-0.6v-1.8h-2.3v1.8H110v-4h0.6v1.7h2.3v-1.7H113.5z"/>
			<path class="st0" d="M121.8,25.9l0.2-0.4c0.3,0.3,0.8,0.5,1.3,0.5c0.7,0,1-0.3,1-0.6c0-1-2.4-0.4-2.4-1.8c0-0.6,0.5-1.1,1.5-1.1
				c0.5,0,0.9,0.1,1.3,0.4l-0.2,0.5c-0.3-0.2-0.7-0.3-1.1-0.3c-0.7,0-1,0.3-1,0.6c0,1,2.4,0.4,2.4,1.8c0,0.6-0.5,1.1-1.5,1.1
				C122.7,26.4,122.1,26.2,121.8,25.9z"/>
			<path class="st0" d="M131.5,25.9v0.5h-2.9v-4h2.8v0.5h-2.2v1.2h2v0.5h-2v1.3H131.5z"/>
			<path class="st0" d="M138.1,26.4l-0.9-1.2c-0.1,0-0.2,0-0.2,0h-1v1.2h-0.6v-4h1.5c1,0,1.7,0.5,1.7,1.4c0,0.6-0.3,1.1-0.9,1.3
				l0.9,1.3C138.6,26.4,138.1,26.4,138.1,26.4z M138,23.8c0-0.6-0.4-0.9-1.1-0.9h-1v1.8h1C137.7,24.7,138,24.4,138,23.8z"/>
			<path class="st0" d="M145.9,22.4l-1.7,4h-0.6l-1.7-4h0.6l1.4,3.3l1.4-3.3H145.9z"/>
			<path class="st0" d="M149.4,22.4h0.6v4h-0.6V22.4z"/>
			<path class="st0" d="M153.8,24.4c0-1.2,0.9-2,2.1-2c0.6,0,1.1,0.2,1.5,0.6l-0.4,0.4c-0.3-0.3-0.7-0.5-1.1-0.5
				c-0.9,0-1.6,0.6-1.6,1.5s0.7,1.5,1.6,1.5c0.4,0,0.8-0.2,1.1-0.5l0.4,0.4c-0.4,0.4-0.9,0.6-1.5,0.6
				C154.7,26.4,153.8,25.6,153.8,24.4z"/>
			<path class="st0" d="M164.1,25.9v0.5h-2.9v-4h2.8v0.5h-2.2v1.2h2v0.5h-2v1.3H164.1z"/>
			<path class="st0" d="M167.6,25.9l0.2-0.4c0.3,0.3,0.8,0.5,1.3,0.5c0.7,0,1-0.3,1-0.6c0-1-2.4-0.4-2.4-1.8c0-0.6,0.5-1.1,1.5-1.1
				c0.5,0,0.9,0.1,1.3,0.4l-0.2,0.5c-0.3-0.2-0.7-0.3-1.1-0.3c-0.7,0-1,0.3-1,0.6c0,1,2.4,0.4,2.4,1.8c0,0.6-0.5,1.1-1.5,1.1
				C168.5,26.4,167.9,26.2,167.6,25.9z"/>
			<path class="st0" d="M179,22.4h0.6v3.5h2.1v0.5H179V22.4z"/>
			<path class="st0" d="M185.7,22.9h-1.4v-0.5h3.3v0.5h-1.4v3.5h-0.6L185.7,22.9L185.7,22.9z"/>
			<path class="st0" d="M191.2,22.4h1.7c1.3,0,2.1,0.8,2.1,2s-0.9,2-2.1,2h-1.7V22.4z M192.9,25.9c1,0,1.6-0.6,1.6-1.5
				s-0.6-1.5-1.6-1.5h-1.1v3H192.9z"/>
			<path class="st0" d="M196,26c0-0.2,0.2-0.4,0.4-0.4s0.4,0.2,0.4,0.4c0,0.2-0.2,0.4-0.4,0.4S196,26.3,196,26z"/>
		</g>
	</g>
	<g>
		<path class="st0" d="M21.3,1.7v16.1c0,0,0,0,0.1,0l0.2,0.1l0,0l0,0l0,0c0.1,0,0.2,0,0.2,0c0.1,0,0.1,0,0.2,0V2.4h19.1
			c0,0,0-0.1,0.1-0.1L41.5,2c0.1-0.1,0.2-0.2,0.2-0.3H21.3z M46.8,1.7v0.1c0,0.2-0.1,0.4-0.1,0.6h2.7v17h0.2l0.5-0.1l0,0V1.7H46.8z
			 M22,29.8v-9.5h-0.1c-0.1,0-0.2,0-0.3-0.1c-0.1,0-0.2,0-0.3,0l0,0v10.4h8.1l0,0c0-0.1,0-0.2,0-0.3v-0.2V30v-0.1L22,29.8L22,29.8z
			 M50.1,21.2h-0.2c-0.1,0-0.1,0-0.1,0h-0.1h-0.2v8.4H34.2c0,0,0,0,0,0.1s0,0.2-0.1,0.3l0,0c0,0,0,0.1,0,0.2v0.2h16.1L50.1,21.2
			L50.1,21.2z M22,29.8v-9.5h-0.1c-0.1,0-0.2,0-0.3-0.1c-0.1,0-0.2,0-0.3,0l0,0v10.4h8.1l0,0c0-0.1,0-0.2,0-0.3v-0.2V30v-0.1
			L22,29.8L22,29.8z"/>
		<g>
			<g>
				<path class="st0" d="M63.9,17.7c-3.9,0-9,1.4-13.7,2.4h-0.1H50l0,0c-0.1,0-0.2,0-0.3,0s-0.2,0-0.3,0.1c0,0,0,0-0.1,0
					c-2,0.4-3.9,0.6-5.6,0.6c-1.2,0-2.2-0.7-2.2-1.9c0-0.5,0.2-1,0.6-1.4l0.1-0.1l0,0c0.1,0.3,0.4,0.5,0.7,0.5
					c0.9,0,2.3-0.5,2.3-1.6c0-0.7-0.3-1.2-1.1-1.2c-0.7,0-1.5,0.3-2.1,0.7c-0.5,0.4-1,0.8-1.3,1.4c-0.4,0.3-0.8,0.7-1.2,1
					c-1.7,1.4-3.5,2.5-5.7,3.2c0.4-1,1.6-3.6,2.9-6.7c3-2.5,5.6-5.5,7.3-8.3c0.6-1.1,1.4-2.5,1.7-3.9l0,0C46,2.1,46,1.9,46.1,1.7
					c0-0.2,0-0.5,0-0.7c0-0.6-0.4-1-1-1c-0.7,0-1.6,0.6-2.5,1.7c-0.2,0.2-0.4,0.5-0.6,0.7l0,0c-0.1,0.1-0.1,0.2-0.2,0.3
					c-2.3,3.2-4.9,8.6-6.8,12.9c-3.1,2.1-6.2,3.5-8.7,3.5c-1.4,0-2.8-0.2-4.2-0.5H22l0,0c-0.1,0-0.2,0-0.3-0.1c-0.1,0-0.2,0-0.3-0.1
					l0,0l0,0c0,0,0,0-0.1,0c0,0,0,0-0.1,0l0,0c-0.6-0.1-1.3-0.3-1.9-0.5c-4.4-1.2-8.8-3.1-13.4-3.1c-1.2,0-5.9,1-5.9,2.6
					c0,0.3,0.3,0.3,0.5,0.3c1,0,3.2-2,6-2c4.7,0,10,2.4,14.7,3.5h0.1c0.1,0,0.2,0,0.3,0.1c0.1,0,0.2,0,0.3,0l0,0l0,0H22
					c0.9,0.2,1.8,0.3,2.7,0.3c3.4,0,6.9-1.4,10-3.6c-1,2.3-1.8,4.2-2.2,5.1c-0.1,0-0.9,0-0.9,0.2s0.4,0.8,0.5,1
					c-0.8,1.8-1.8,4.9-2.2,7.2l0,0c0,0.1,0,0.1,0,0.2s0,0.1,0,0.2s0,0.3,0,0.4l0,0c0,0.1,0,0.3,0,0.4c0,0.9,0.2,2.1,1.3,2.1
					c1,0,1.6-1.1,1.9-2.5l0,0c0-0.1,0-0.2,0.1-0.2l0,0c0-0.1,0-0.2,0-0.2l0,0l0,0c0-0.1,0-0.1,0-0.2l0,0c0.2-1.2,0.2-2.5,0.2-3.1
					c0-1.1-0.2-2.2-0.6-3.2l0.7-1.6c2-0.5,4.1-1.8,5.9-3.2c0.3-0.2,0.6-0.5,0.9-0.8c-0.1,0.3-0.1,0.6-0.1,0.9c0,0.1,0,0.2,0,0.2
					c0.2,1.7,1.8,2.2,3.4,2.2c1.3,0,2.8-0.1,4.3-0.4c0.2,0,0.4-0.1,0.7-0.1c0.2,0,0.4-0.1,0.7-0.1c0,0,0,0,0.1,0c0,0,0,0,0.1,0
					s0.1,0,0.2,0l0,0c0.1,0,0.1,0,0.2,0l0,0l0,0H50h0.1c4.6-0.9,9.4-2.1,13.1-2.1c1.6,0,3.3,0.1,4.9,0.7c0.6,0.2,2.2,1.1,2.6,1.1
					c0.2,0,0.5,0,0.5-0.4C71.4,17.8,65.3,17.7,63.9,17.7z M43.4,2.4L43.4,2.4L43.4,2.4c0.3-0.3,0.5-0.6,0.7-0.8s0.5-0.3,0.7-0.3
					s0.4,0.1,0.4,0.3c0,0,0,0.1,0,0.2c0,0.2,0,0.4,0,0.6l0,0c-0.3,3.7-3.8,8.2-8,11.6C39.1,9.7,41.6,4.6,43.4,2.4z M33.2,26.6
					c0,0.5-0.1,2-0.5,3.1l0,0c-0.1,0.3-0.2,0.5-0.3,0.7l0,0c-0.2,0.5-0.5,0.8-0.9,0.8c-0.3,0-0.3-0.6-0.3-0.8l0,0
					c0-0.2,0-0.5,0.1-0.7l0,0c0.2-1.8,1.1-4.5,1.5-5.9C33,24.8,33.2,25.7,33.2,26.6z"/>
			</g>
		</g>
	</g>
</g>
</svg>
